<?xml version="1.0" standalone="no"?>
<!DOCTYPE svg PUBLIC "-//W3C//DTD SVG 20010904//EN"
 "http://www.w3.org/TR/2001/REC-SVG-20010904/DTD/svg10.dtd">
<svg version="1.0" xmlns="http://www.w3.org/2000/svg"
 width="512.000000pt" height="512.000000pt" viewBox="0 0 512.000000 512.000000"
 preserveAspectRatio="xMidYMid meet">

<g transform="translate(0.000000,512.000000) scale(0.100000,-0.100000)"
fill="#000000" stroke="none">
<path d="M1277 3569 l-1277 -1050 67 -82 c38 -45 100 -121 138 -169 39 -48 75
-87 80 -87 6 0 518 418 1140 929 621 512 1132 930 1135 930 3 0 514 -418 1135
-930 622 -511 1135 -929 1140 -929 6 0 42 39 80 87 39 48 100 124 138 169 l67
82 -1277 1050 c-703 578 -1280 1051 -1283 1051 -3 0 -580 -473 -1283 -1051z"/>
<path d="M1735 2932 l-820 -677 -3 -878 -2 -877 580 0 580 0 0 870 0 870 493
-2 492 -3 3 -867 2 -868 575 0 575 0 0 873 0 873 -820 679 c-451 374 -824 681
-828 682 -4 1 -376 -302 -827 -675z"/>
</g>
</svg>
