<?xml version="1.0" standalone="no"?>
<!DOCTYPE svg PUBLIC "-//W3C//DTD SVG 20010904//EN"
 "http://www.w3.org/TR/2001/REC-SVG-20010904/DTD/svg10.dtd">
<svg version="1.0" xmlns="http://www.w3.org/2000/svg"
 width="512.000000pt" height="512.000000pt" viewBox="0 0 512.000000 512.000000"
 preserveAspectRatio="xMidYMid meet">

<g transform="translate(0.000000,512.000000) scale(0.100000,-0.100000)"
fill="#000000" stroke="none">
<path d="M2523 4540 c-30 -12 -40 -30 -129 -225 -43 -93 -79 -172 -80 -174 -2
-2 -94 -14 -206 -28 -213 -25 -241 -34 -259 -80 -20 -53 -4 -76 157 -224 124
-114 154 -147 150 -163 -2 -12 -21 -104 -41 -205 -32 -159 -35 -187 -24 -213
14 -34 68 -63 100 -53 10 3 95 49 188 101 93 52 175 94 181 94 6 0 88 -42 181
-94 93 -52 178 -98 188 -101 32 -10 86 19 100 53 11 26 8 54 -24 213 -20 101
-39 193 -41 205 -4 16 26 49 150 163 161 148 177 171 157 224 -18 46 -46 55
-260 81 -111 13 -204 26 -205 28 -1 1 -40 85 -86 186 -46 100 -91 189 -100
197 -21 19 -69 27 -97 15z"/>
<path d="M1000 3757 c-19 -9 -47 -59 -112 -197 -48 -102 -88 -189 -90 -193 -2
-4 -95 -19 -207 -33 -112 -13 -212 -29 -222 -34 -26 -14 -39 -42 -39 -83 0
-32 11 -46 123 -150 67 -63 137 -128 156 -144 l35 -30 -13 -74 c-8 -41 -16
-80 -18 -86 -4 -10 85 -13 426 -13 404 0 431 1 431 18 -1 9 -7 46 -15 82 l-14
65 52 50 c29 28 101 95 160 150 93 87 107 105 107 133 0 21 -9 42 -27 62 -28
29 -31 30 -232 54 -112 14 -207 29 -212 33 -4 4 -42 85 -84 178 -97 215 -131
250 -205 212z"/>
<path d="M4022 3744 c-19 -19 -57 -90 -107 -199 -42 -93 -81 -174 -85 -178 -4
-5 -99 -20 -211 -33 -201 -24 -204 -25 -231 -54 -19 -20 -28 -41 -28 -63 0
-28 13 -44 102 -127 57 -52 128 -120 160 -150 l57 -55 -14 -65 c-8 -36 -14
-73 -15 -82 0 -17 27 -18 431 -18 341 0 430 3 426 13 -2 6 -10 45 -17 85 -11
62 -11 75 1 86 8 7 78 72 157 145 130 122 142 136 142 167 0 42 -13 70 -39 84
-11 5 -110 21 -222 35 -111 14 -204 26 -205 28 -1 1 -41 85 -87 186 -47 101
-92 190 -99 198 -8 7 -30 16 -50 19 -29 5 -40 1 -66 -22z"/>
<path d="M2031 2814 c-24 -19 -31 -34 -31 -60 l0 -34 560 0 560 0 0 34 c0 26
-7 41 -31 60 l-31 26 -498 0 -498 0 -31 -26z"/>
</g>
</svg>
