<?xml version="1.0" standalone="no"?>
<!DOCTYPE svg PUBLIC "-//W3C//DTD SVG 20010904//EN"
 "http://www.w3.org/TR/2001/REC-SVG-20010904/DTD/svg10.dtd">
<svg version="1.0" xmlns="http://www.w3.org/2000/svg"
 width="512.000000pt" height="512.000000pt" viewBox="0 0 512.000000 512.000000"
 preserveAspectRatio="xMidYMid meet">

<g transform="translate(0.000000,512.000000) scale(0.100000,-0.100000)"
fill="#000000" stroke="none">
<path d="M2380 5054 c-19 -2 -78 -9 -130 -15 -323 -37 -682 -160 -968 -333
-666 -401 -1094 -1055 -1204 -1836 -17 -123 -17 -495 1 -620 38 -278 119 -548
236 -785 79 -162 201 -358 230 -368 9 -4 29 -1 43 6 45 21 40 54 -21 148 -263
405 -388 826 -388 1309 0 403 83 745 265 1096 361 693 1042 1170 1811 1269
241 31 577 18 800 -31 455 -101 863 -323 1188 -648 611 -611 843 -1489 613
-2326 -237 -865 -974 -1541 -1857 -1704 -229 -42 -516 -50 -745 -21 -459 59
-919 267 -1268 573 -33 29 -68 52 -78 52 -38 0 -58 -19 -58 -54 0 -30 10 -42
97 -115 854 -715 2068 -787 2988 -176 549 365 938 933 1068 1560 42 200 51
298 51 525 0 299 -32 513 -119 776 -297 904 -1085 1565 -2025 1699 -108 16
-454 28 -530 19z"/>
<path d="M2350 4554 c-14 -2 -59 -9 -100 -15 -254 -36 -557 -152 -779 -299
-475 -312 -781 -775 -887 -1342 -25 -130 -30 -456 -9 -603 92 -671 506 -1243
1110 -1535 284 -138 553 -199 872 -200 253 0 480 40 708 125 615 230 1095 774
1244 1412 70 301 69 654 -5 944 -122 485 -415 903 -824 1178 -242 162 -488
262 -782 317 -79 15 -486 29 -548 18z m399 -114 c549 -58 1027 -339 1358 -797
82 -115 200 -348 246 -491 159 -488 121 -984 -110 -1442 -185 -368 -466 -648
-833 -833 -457 -230 -952 -269 -1438 -112 -137 45 -382 167 -495 249 -265 190
-458 414 -600 696 -199 395 -253 799 -166 1235 30 151 85 304 166 465 182 362
461 643 823 829 325 167 696 238 1049 201z"/>
<path d="M2064 3580 c-50 -16 -120 -85 -141 -138 -17 -44 -18 -98 -18 -882 0
-949 -5 -893 82 -970 92 -80 188 -80 322 2 649 397 1262 785 1289 815 47 54
68 131 52 200 -23 103 -22 103 -685 515 -822 510 -734 460 -808 464 -34 2 -76
-1 -93 -6z m112 -111 c16 -5 322 -193 681 -416 684 -424 683 -424 683 -493 0
-69 0 -69 -684 -494 -360 -224 -668 -411 -685 -417 -39 -14 -89 2 -122 37
l-24 26 0 848 c0 834 0 848 20 870 20 22 69 49 92 50 6 0 24 -5 39 -11z"/>
</g>
</svg>
