<?xml version="1.0" standalone="no"?>
<!DOCTYPE svg PUBLIC "-//W3C//DTD SVG 20010904//EN"
 "http://www.w3.org/TR/2001/REC-SVG-20010904/DTD/svg10.dtd">
<svg version="1.0" xmlns="http://www.w3.org/2000/svg"
 width="512.000000pt" height="512.000000pt" viewBox="0 0 512.000000 512.000000"
 preserveAspectRatio="xMidYMid meet">

<g transform="translate(0.000000,512.000000) scale(0.100000,-0.100000)"
fill="#000000" stroke="none">
<path d="M1665 5114 c-16 -2 -66 -9 -110 -15 -44 -5 -130 -23 -192 -39 -317
-82 -594 -241 -828 -475 -437 -437 -621 -1054 -495 -1660 47 -228 163 -495
298 -685 85 -121 300 -336 417 -418 255 -180 514 -283 825 -328 157 -22 429
-15 585 16 218 43 436 128 613 238 46 29 87 52 90 52 4 0 52 -45 106 -99 l99
-100 -30 -34 c-65 -74 -81 -188 -37 -271 25 -48 1228 -1251 1274 -1273 48 -24
163 -24 210 1 19 10 162 145 316 300 259 258 283 285 299 335 21 64 16 131
-14 188 -25 48 -1223 1245 -1269 1268 -81 40 -180 28 -258 -31 l-47 -36 -98
98 c-55 54 -99 102 -99 105 0 4 29 56 65 115 181 301 265 634 252 998 -6 164
-18 255 -57 406 -47 185 -159 421 -278 590 -87 123 -300 336 -422 422 -208
147 -493 266 -739 309 -111 20 -402 34 -476 23z m437 -174 c232 -38 486 -142
678 -278 107 -76 313 -276 380 -369 164 -229 268 -482 311 -758 19 -119 16
-369 -5 -499 -56 -344 -208 -645 -450 -895 -323 -332 -723 -502 -1186 -504
-175 -1 -264 9 -424 49 -560 140 -1012 576 -1180 1134 -53 180 -61 239 -61
480 0 197 3 238 23 330 81 368 266 687 536 921 385 334 870 471 1378 389z
m1196 -3117 l-113 -113 -95 95 -94 95 109 113 110 113 98 -96 97 -95 -112
-112z m537 76 l80 -79 -308 -307 -307 -308 -81 81 c-126 126 -137 101 183 421
144 146 272 269 283 273 37 17 70 -1 150 -81z m542 -1156 l-307 -308 -330 330
-330 330 307 307 308 308 330 -330 330 -330 -308 -307z m583 -8 c0 -39 -7 -46
-268 -307 -260 -260 -269 -268 -307 -268 -36 0 -47 7 -122 82 l-83 83 307 307
308 308 82 -82 c76 -76 83 -86 83 -123z"/>
<path d="M1635 4709 c-171 -23 -378 -93 -522 -177 -158 -92 -339 -254 -440
-392 -111 -152 -195 -339 -241 -534 -23 -99 -26 -132 -27 -301 0 -212 11 -283
70 -462 155 -465 539 -814 1025 -930 129 -30 381 -42 512 -24 589 84 1059 512
1195 1091 30 130 42 370 24 503 -80 601 -525 1081 -1119 1207 -112 24 -365 34
-477 19z m410 -165 c304 -50 599 -232 793 -489 105 -141 201 -363 233 -545 22
-121 17 -345 -10 -470 -96 -443 -412 -801 -829 -940 -152 -50 -242 -64 -412
-64 -166 0 -260 14 -400 60 -178 59 -355 169 -490 304 -245 243 -374 555 -373
905 1 343 125 641 369 887 295 296 691 421 1119 352z"/>
</g>
</svg>
