<?xml version="1.0" standalone="no"?>
<!DOCTYPE svg PUBLIC "-//W3C//DTD SVG 20010904//EN"
 "http://www.w3.org/TR/2001/REC-SVG-20010904/DTD/svg10.dtd">
<svg version="1.0" xmlns="http://www.w3.org/2000/svg"
 width="512.000000pt" height="512.000000pt" viewBox="0 0 512.000000 512.000000"
 preserveAspectRatio="xMidYMid meet">

<g transform="translate(0.000000,512.000000) scale(0.100000,-0.100000)"
fill="#000000" stroke="none">
<path d="M2315 5109 c-800 -83 -1501 -518 -1927 -1196 -604 -960 -491 -2229
272 -3065 423 -463 951 -740 1585 -830 118 -17 511 -16 635 0 579 80 1097 337
1491 739 130 132 157 163 243 277 256 341 423 757 488 1211 17 118 17 512 0
630 -43 303 -122 561 -247 814 -134 268 -270 459 -483 674 -395 400 -889 649
-1457 733 -123 18 -478 26 -600 13z m342 -1020 c250 -28 419 -126 516 -300 54
-96 77 -198 84 -366 5 -132 7 -143 25 -143 68 0 123 -84 116 -176 -6 -69 -70
-200 -133 -271 -35 -40 -51 -70 -65 -120 -11 -38 -38 -105 -60 -150 -34 -70
-55 -95 -135 -170 -60 -56 -100 -102 -110 -126 -11 -28 -15 -78 -15 -198 0
-188 3 -197 97 -246 81 -43 116 -51 356 -78 317 -35 452 -69 508 -124 25 -26
26 -29 32 -216 4 -105 7 -229 7 -278 0 -85 -1 -88 -26 -97 -36 -14 -2553 -14
-2590 0 l-27 11 7 272 c6 216 11 277 23 295 37 58 224 107 518 137 207 20 280
36 357 77 95 50 98 58 98 247 0 120 -4 170 -15 198 -10 24 -50 70 -110 126
-85 79 -100 99 -140 180 -24 51 -50 118 -58 149 -11 42 -28 72 -61 110 -61 69
-127 202 -134 268 -9 94 46 180 114 180 20 0 21 6 27 143 7 171 30 268 88 373
22 41 62 96 88 122 85 85 245 153 401 171 107 12 111 12 217 0z"/>
</g>
</svg>
